<svg width="450" height="279" viewBox="0 0 450 279" fill="none" xmlns="http://www.w3.org/2000/svg">
<g filter="url(#filter0_d_602_3024)">
<g clip-path="url(#clip0_602_3024)">
<rect width="450" height="278.81" rx="16" fill="black"/>
<g opacity="0.3" clip-path="url(#clip1_602_3024)">
<path d="M462.346 381.495C462.346 381.495 122.779 386.505 56.9967 143.523C12.5143 -70.6521 152.226 -96.9542 152.226 -96.9542L462.346 381.495ZM152.226 -96.9542C226.78 -117.62 287.551 -86.3081 287.551 -86.3081C287.551 -86.3081 256.852 -238.485 255.599 -244.747C248.707 -134.529 181.671 -118.873 152.226 -96.9542Z" stroke="white" stroke-width="2"/>
<path d="M287.578 -85.6819C385.941 -41.2187 468.64 174.209 440.446 214.288C389.699 238.712 289.459 -39.9662 287.578 -85.6819Z" stroke="white" stroke-width="2"/>
</g>
<path d="M369.406 34.772V33.666H372.038C372.608 33.666 373.046 33.5213 373.354 33.232C373.662 32.9427 373.816 32.5507 373.816 32.056C373.816 31.5893 373.662 31.202 373.354 30.894C373.056 30.586 372.622 30.432 372.052 30.432H369.406V29.284H372.094C372.71 29.284 373.247 29.4053 373.704 29.648C374.162 29.8813 374.512 30.2033 374.754 30.614C375.006 31.0247 375.132 31.496 375.132 32.028C375.132 32.5787 375.006 33.0593 374.754 33.47C374.512 33.8807 374.162 34.2027 373.704 34.436C373.247 34.66 372.71 34.772 372.094 34.772H369.406ZM368.524 39V29.284H369.84V39H368.524ZM374.124 39L370.596 34.646L371.842 34.212L375.79 39H374.124ZM385.551 39V29.284H386.867V39H385.551ZM386.447 39V37.796H392.019V39H386.447ZM386.447 34.604V33.456H391.557V34.604H386.447ZM386.447 30.488V29.284H391.949V30.488H386.447ZM402.209 39V29.284H403.525V39H402.209ZM403.105 34.73V33.526H408.173V34.73H403.105ZM403.105 30.488V29.284H408.411V30.488H403.105ZM418.539 39V29.284H419.855V39H418.539Z" fill="white"/>
<path opacity="0.5" d="M33.0265 242.16C32.1838 242.16 31.4105 241.925 30.7065 241.456C30.0132 240.976 29.4585 240.304 29.0425 239.44C28.6265 238.576 28.4185 237.557 28.4185 236.384C28.4185 235.211 28.6212 234.197 29.0265 233.344C29.4425 232.48 29.9972 231.813 30.6905 231.344C31.3838 230.875 32.1518 230.64 32.9945 230.64C33.8478 230.64 34.6212 230.875 35.3145 231.344C36.0078 231.813 36.5572 232.48 36.9625 233.344C37.3785 234.197 37.5865 235.216 37.5865 236.4C37.5865 237.573 37.3785 238.592 36.9625 239.456C36.5572 240.32 36.0078 240.987 35.3145 241.456C34.6318 241.925 33.8692 242.16 33.0265 242.16ZM32.9945 240.432C33.5492 240.432 34.0292 240.283 34.4345 239.984C34.8398 239.685 35.1545 239.237 35.3785 238.64C35.6132 238.043 35.7305 237.291 35.7305 236.384C35.7305 235.488 35.6132 234.741 35.3785 234.144C35.1545 233.547 34.8345 233.104 34.4185 232.816C34.0132 232.517 33.5385 232.368 32.9945 232.368C32.4505 232.368 31.9705 232.517 31.5545 232.816C31.1492 233.104 30.8345 233.547 30.6105 234.144C30.3865 234.731 30.2745 235.477 30.2745 236.384C30.2745 237.291 30.3865 238.043 30.6105 238.64C30.8345 239.237 31.1492 239.685 31.5545 239.984C31.9705 240.283 32.4505 240.432 32.9945 240.432ZM44.4069 242L42.1989 238.752L41.8789 238.464L38.9029 234.32H41.0309L42.9989 237.168L43.3029 237.44L46.5189 242H44.4069ZM38.7589 242L41.8629 237.696L42.8869 238.96L40.8069 242H38.7589ZM43.4629 238.432L42.4229 237.184L44.3429 234.32H46.3749L43.4629 238.432ZM49.6835 242V230.8H51.4915V242H49.6835ZM47.4435 232.448V230.8H51.3315V232.448H47.4435ZM57.419 242.16C56.651 242.16 55.9843 242.021 55.419 241.744C54.8537 241.467 54.411 241.083 54.091 240.592C53.7817 240.091 53.627 239.525 53.627 238.896C53.627 238.395 53.723 237.936 53.915 237.52C54.1177 237.093 54.4057 236.731 54.779 236.432C55.163 236.133 55.6163 235.92 56.139 235.792L56.091 236.304C55.6643 236.187 55.3017 235.995 55.003 235.728C54.715 235.461 54.4963 235.147 54.347 234.784C54.1977 234.421 54.123 234.043 54.123 233.648C54.123 233.051 54.2617 232.528 54.539 232.08C54.827 231.621 55.2217 231.264 55.723 231.008C56.2243 230.752 56.7897 230.624 57.419 230.624C58.059 230.624 58.6243 230.752 59.115 231.008C59.6163 231.264 60.0057 231.621 60.283 232.08C60.571 232.528 60.715 233.051 60.715 233.648C60.715 234.043 60.6403 234.421 60.491 234.784C60.3417 235.147 60.123 235.461 59.835 235.728C59.547 235.995 59.1843 236.187 58.747 236.304L58.699 235.792C59.2323 235.92 59.6857 236.133 60.059 236.432C60.4323 236.731 60.715 237.093 60.907 237.52C61.1097 237.936 61.211 238.395 61.211 238.896C61.211 239.525 61.0563 240.091 60.747 240.592C60.4377 241.083 59.995 241.467 59.419 241.744C58.8537 242.021 58.187 242.16 57.419 242.16ZM57.419 240.496C57.8137 240.496 58.1603 240.416 58.459 240.256C58.7683 240.096 59.0083 239.877 59.179 239.6C59.3603 239.323 59.451 239.008 59.451 238.656C59.451 238.293 59.3603 237.979 59.179 237.712C59.0083 237.435 58.7683 237.216 58.459 237.056C58.1603 236.896 57.8137 236.816 57.419 236.816C57.0243 236.816 56.6723 236.896 56.363 237.056C56.0643 237.216 55.8243 237.435 55.643 237.712C55.4723 237.979 55.387 238.293 55.387 238.656C55.387 239.008 55.4723 239.323 55.643 239.6C55.8243 239.877 56.0643 240.096 56.363 240.256C56.6723 240.416 57.0243 240.496 57.419 240.496ZM57.419 235.376C57.8883 235.376 58.2723 235.227 58.571 234.928C58.8697 234.629 59.019 234.245 59.019 233.776C59.019 233.307 58.8697 232.928 58.571 232.64C58.2723 232.341 57.8883 232.192 57.419 232.192C56.9603 232.192 56.5763 232.341 56.267 232.64C55.9683 232.928 55.819 233.307 55.819 233.776C55.819 234.245 55.9683 234.629 56.267 234.928C56.5763 235.227 56.9603 235.376 57.419 235.376ZM63.3366 242V230.8H65.1766V242H63.3366ZM64.6006 242V240.32H70.8726V242H64.6006ZM64.6006 237.088V235.472H70.3286V237.088H64.6006ZM64.6006 232.48V230.8H70.7926V232.48H64.6006ZM73.0941 242V230.8H74.9341V242H73.0941ZM74.3581 242V240.32H80.6301V242H74.3581ZM74.3581 237.088V235.472H80.0861V237.088H74.3581ZM74.3581 232.48V230.8H80.5501V232.48H74.3581ZM85.5876 242.16C84.809 242.16 84.1156 242.027 83.5076 241.76C82.8996 241.483 82.3876 241.083 81.9716 240.56L83.2196 239.312C83.4436 239.653 83.7583 239.925 84.1636 240.128C84.5796 240.331 85.0436 240.432 85.5556 240.432C86.025 240.432 86.4356 240.347 86.7876 240.176C87.1396 240.005 87.417 239.76 87.6196 239.44C87.8223 239.12 87.9236 238.741 87.9236 238.304C87.9236 237.845 87.8223 237.467 87.6196 237.168C87.4276 236.859 87.1663 236.629 86.8356 236.48C86.5156 236.32 86.169 236.24 85.7956 236.24C85.369 236.24 84.985 236.288 84.6436 236.384C84.313 236.48 83.9876 236.651 83.6676 236.896L83.7156 235.744C83.8863 235.52 84.0836 235.339 84.3076 235.2C84.5316 235.051 84.793 234.939 85.0916 234.864C85.3903 234.789 85.7423 234.752 86.1476 234.752C86.937 234.752 87.5983 234.917 88.1316 235.248C88.6756 235.579 89.0863 236.021 89.3636 236.576C89.641 237.12 89.7796 237.728 89.7796 238.4C89.7796 239.125 89.5983 239.771 89.2356 240.336C88.8836 240.901 88.393 241.349 87.7636 241.68C87.1343 242 86.409 242.16 85.5876 242.16ZM83.6676 236.896L82.6596 235.888L83.1556 230.8H84.8356L84.2596 236.096L83.6676 236.896ZM83.4756 232.448L83.1556 230.8H89.1556V232.448H83.4756ZM96.9784 242.16C96.1677 242.16 95.4157 242.016 94.7224 241.728C94.0397 241.429 93.4424 241.019 92.9304 240.496C92.4184 239.963 92.0237 239.349 91.7464 238.656C91.4691 237.952 91.3304 237.2 91.3304 236.4C91.3304 235.6 91.4691 234.853 91.7464 234.16C92.0237 233.456 92.4184 232.843 92.9304 232.32C93.4424 231.797 94.0397 231.387 94.7224 231.088C95.4157 230.789 96.1677 230.64 96.9784 230.64C97.8851 230.64 98.6691 230.789 99.3304 231.088C99.9917 231.387 100.578 231.792 101.09 232.304L99.8424 233.552C99.5117 233.189 99.1064 232.907 98.6264 232.704C98.1571 232.501 97.6077 232.4 96.9784 232.4C96.4237 232.4 95.9171 232.496 95.4584 232.688C94.9997 232.88 94.5997 233.157 94.2584 233.52C93.9277 233.872 93.6717 234.293 93.4904 234.784C93.3091 235.275 93.2184 235.813 93.2184 236.4C93.2184 236.987 93.3091 237.525 93.4904 238.016C93.6717 238.507 93.9277 238.933 94.2584 239.296C94.5997 239.648 94.9997 239.92 95.4584 240.112C95.9171 240.304 96.4237 240.4 96.9784 240.4C97.6611 240.4 98.2371 240.299 98.7064 240.096C99.1864 239.883 99.5917 239.595 99.9224 239.232L101.17 240.48C100.658 241.003 100.056 241.413 99.3624 241.712C98.6691 242.011 97.8744 242.16 96.9784 242.16ZM107.18 242.16C106.338 242.16 105.564 241.925 104.86 241.456C104.167 240.976 103.612 240.304 103.196 239.44C102.78 238.576 102.572 237.557 102.572 236.384C102.572 235.211 102.775 234.197 103.18 233.344C103.596 232.48 104.151 231.813 104.844 231.344C105.538 230.875 106.306 230.64 107.148 230.64C108.002 230.64 108.775 230.875 109.468 231.344C110.162 231.813 110.711 232.48 111.116 233.344C111.532 234.197 111.74 235.216 111.74 236.4C111.74 237.573 111.532 238.592 111.116 239.456C110.711 240.32 110.162 240.987 109.468 241.456C108.786 241.925 108.023 242.16 107.18 242.16ZM107.148 240.432C107.703 240.432 108.183 240.283 108.588 239.984C108.994 239.685 109.308 239.237 109.532 238.64C109.767 238.043 109.884 237.291 109.884 236.384C109.884 235.488 109.767 234.741 109.532 234.144C109.308 233.547 108.988 233.104 108.572 232.816C108.167 232.517 107.692 232.368 107.148 232.368C106.604 232.368 106.124 232.517 105.708 232.816C105.303 233.104 104.988 233.547 104.764 234.144C104.54 234.731 104.428 235.477 104.428 236.384C104.428 237.291 104.54 238.043 104.764 238.64C104.988 239.237 105.303 239.685 105.708 239.984C106.124 240.283 106.604 240.432 107.148 240.432ZM117.265 242.16C116.497 242.16 115.803 241.989 115.185 241.648C114.577 241.296 114.091 240.816 113.729 240.208C113.377 239.6 113.201 238.917 113.201 238.16C113.201 237.403 113.377 236.725 113.729 236.128C114.081 235.52 114.555 235.04 115.153 234.688C115.761 234.336 116.433 234.16 117.169 234.16C117.883 234.16 118.513 234.325 119.057 234.656C119.611 234.987 120.043 235.44 120.353 236.016C120.673 236.592 120.833 237.248 120.833 237.984C120.833 238.112 120.822 238.245 120.801 238.384C120.79 238.512 120.769 238.656 120.737 238.816H114.433V237.376H119.825L119.169 237.952C119.147 237.483 119.057 237.088 118.897 236.768C118.737 236.448 118.507 236.203 118.209 236.032C117.921 235.861 117.563 235.776 117.137 235.776C116.689 235.776 116.299 235.872 115.969 236.064C115.638 236.256 115.382 236.528 115.201 236.88C115.019 237.221 114.929 237.632 114.929 238.112C114.929 238.592 115.025 239.013 115.217 239.376C115.409 239.739 115.681 240.021 116.033 240.224C116.385 240.416 116.79 240.512 117.249 240.512C117.643 240.512 118.006 240.443 118.337 240.304C118.678 240.165 118.966 239.963 119.201 239.696L120.321 240.832C119.947 241.269 119.494 241.6 118.961 241.824C118.427 242.048 117.862 242.16 117.265 242.16ZM127.892 242.16C127.081 242.16 126.329 242.016 125.636 241.728C124.953 241.429 124.356 241.019 123.844 240.496C123.332 239.963 122.937 239.349 122.66 238.656C122.382 237.952 122.244 237.2 122.244 236.4C122.244 235.6 122.382 234.853 122.66 234.16C122.937 233.456 123.332 232.843 123.844 232.32C124.356 231.797 124.953 231.387 125.636 231.088C126.329 230.789 127.081 230.64 127.892 230.64C128.798 230.64 129.582 230.789 130.244 231.088C130.905 231.387 131.492 231.792 132.004 232.304L130.756 233.552C130.425 233.189 130.02 232.907 129.54 232.704C129.07 232.501 128.521 232.4 127.892 232.4C127.337 232.4 126.83 232.496 126.372 232.688C125.913 232.88 125.513 233.157 125.172 233.52C124.841 233.872 124.585 234.293 124.404 234.784C124.222 235.275 124.132 235.813 124.132 236.4C124.132 236.987 124.222 237.525 124.404 238.016C124.585 238.507 124.841 238.933 125.172 239.296C125.513 239.648 125.913 239.92 126.372 240.112C126.83 240.304 127.337 240.4 127.892 240.4C128.574 240.4 129.15 240.299 129.62 240.096C130.1 239.883 130.505 239.595 130.836 239.232L132.084 240.48C131.572 241.003 130.969 241.413 130.276 241.712C129.582 242.011 128.788 242.16 127.892 242.16ZM133.277 240.912L137.405 236.528C137.747 236.165 138.024 235.84 138.237 235.552C138.451 235.264 138.605 234.992 138.701 234.736C138.797 234.48 138.845 234.219 138.845 233.952C138.845 233.451 138.68 233.061 138.349 232.784C138.029 232.496 137.619 232.352 137.117 232.352C136.584 232.352 136.115 232.485 135.709 232.752C135.304 233.019 134.941 233.435 134.621 234L133.341 232.944C133.779 232.187 134.317 231.616 134.957 231.232C135.597 230.837 136.339 230.64 137.181 230.64C137.875 230.64 138.483 230.779 139.005 231.056C139.528 231.333 139.933 231.723 140.221 232.224C140.509 232.715 140.653 233.285 140.653 233.936C140.653 234.405 140.595 234.827 140.477 235.2C140.371 235.563 140.184 235.931 139.917 236.304C139.651 236.667 139.283 237.093 138.813 237.584L135.645 240.864L133.277 240.912ZM133.277 242V240.912L134.861 240.352H140.877V242H133.277ZM142.254 240.912L146.382 236.528C146.723 236.165 147 235.84 147.214 235.552C147.427 235.264 147.582 234.992 147.678 234.736C147.774 234.48 147.822 234.219 147.822 233.952C147.822 233.451 147.656 233.061 147.326 232.784C147.006 232.496 146.595 232.352 146.094 232.352C145.56 232.352 145.091 232.485 144.686 232.752C144.28 233.019 143.918 233.435 143.598 234L142.318 232.944C142.755 232.187 143.294 231.616 143.934 231.232C144.574 230.837 145.315 230.64 146.158 230.64C146.851 230.64 147.459 230.779 147.982 231.056C148.504 231.333 148.91 231.723 149.198 232.224C149.486 232.715 149.63 233.285 149.63 233.936C149.63 234.405 149.571 234.827 149.454 235.2C149.347 235.563 149.16 235.931 148.894 236.304C148.627 236.667 148.259 237.093 147.79 237.584L144.622 240.864L142.254 240.912ZM142.254 242V240.912L143.838 240.352H149.854V242H142.254ZM155.87 242.16C155.283 242.16 154.761 242.037 154.302 241.792C153.843 241.536 153.481 241.189 153.214 240.752C152.958 240.315 152.83 239.819 152.83 239.264V237.056C152.83 236.501 152.963 236.005 153.23 235.568C153.497 235.131 153.859 234.789 154.318 234.544C154.777 234.288 155.294 234.16 155.87 234.16C156.563 234.16 157.187 234.341 157.742 234.704C158.307 235.056 158.75 235.536 159.07 236.144C159.401 236.741 159.566 237.419 159.566 238.176C159.566 238.923 159.401 239.6 159.07 240.208C158.75 240.805 158.307 241.28 157.742 241.632C157.187 241.984 156.563 242.16 155.87 242.16ZM155.582 240.496C156.009 240.496 156.382 240.4 156.702 240.208C157.033 240.005 157.289 239.728 157.47 239.376C157.662 239.024 157.758 238.619 157.758 238.16C157.758 237.701 157.662 237.296 157.47 236.944C157.289 236.592 157.033 236.32 156.702 236.128C156.382 235.925 156.009 235.824 155.582 235.824C155.155 235.824 154.777 235.925 154.446 236.128C154.115 236.32 153.859 236.592 153.678 236.944C153.497 237.296 153.406 237.701 153.406 238.16C153.406 238.619 153.497 239.024 153.678 239.376C153.859 239.728 154.115 240.005 154.446 240.208C154.777 240.4 155.155 240.496 155.582 240.496ZM151.758 242V230.48H153.518V236.208L153.214 238.064L153.518 239.936V242H151.758ZM166.687 242.16C165.876 242.16 165.124 242.016 164.431 241.728C163.748 241.429 163.151 241.019 162.639 240.496C162.127 239.963 161.732 239.349 161.455 238.656C161.178 237.952 161.039 237.2 161.039 236.4C161.039 235.6 161.178 234.853 161.455 234.16C161.732 233.456 162.127 232.843 162.639 232.32C163.151 231.797 163.748 231.387 164.431 231.088C165.124 230.789 165.876 230.64 166.687 230.64C167.594 230.64 168.378 230.789 169.039 231.088C169.7 231.387 170.287 231.792 170.799 232.304L169.551 233.552C169.22 233.189 168.815 232.907 168.335 232.704C167.866 232.501 167.316 232.4 166.687 232.4C166.132 232.4 165.626 232.496 165.167 232.688C164.708 232.88 164.308 233.157 163.967 233.52C163.636 233.872 163.38 234.293 163.199 234.784C163.018 235.275 162.927 235.813 162.927 236.4C162.927 236.987 163.018 237.525 163.199 238.016C163.38 238.507 163.636 238.933 163.967 239.296C164.308 239.648 164.708 239.92 165.167 240.112C165.626 240.304 166.132 240.4 166.687 240.4C167.37 240.4 167.946 240.299 168.415 240.096C168.895 239.883 169.3 239.595 169.631 239.232L170.879 240.48C170.367 241.003 169.764 241.413 169.071 241.712C168.378 242.011 167.583 242.16 166.687 242.16ZM173.251 242V233.664C173.251 233.045 173.384 232.501 173.651 232.032C173.917 231.552 174.291 231.173 174.771 230.896C175.261 230.619 175.821 230.48 176.451 230.48C177.091 230.48 177.608 230.619 178.003 230.896C178.408 231.173 178.701 231.552 178.883 232.032C179.075 232.501 179.171 233.045 179.171 233.664L177.891 233.648C177.891 233.157 177.768 232.773 177.523 232.496C177.288 232.219 176.931 232.08 176.451 232.08C175.971 232.08 175.608 232.219 175.363 232.496C175.128 232.763 175.011 233.131 175.011 233.6V242H173.251ZM171.411 235.92V234.32H181.971V235.92H171.411ZM177.891 242V233.312C177.891 232.725 178.019 232.208 178.275 231.76C178.541 231.312 178.904 230.96 179.363 230.704C179.832 230.448 180.371 230.32 180.979 230.32C181.448 230.32 181.848 230.4 182.179 230.56C182.509 230.72 182.819 230.949 183.107 231.248L181.971 232.384C181.843 232.256 181.704 232.155 181.555 232.08C181.405 232.005 181.213 231.968 180.979 231.968C180.552 231.968 180.221 232.085 179.987 232.32C179.763 232.544 179.651 232.869 179.651 233.296V242H177.891ZM187.129 242.16C186.382 242.16 185.71 241.989 185.113 241.648C184.515 241.296 184.041 240.827 183.689 240.24C183.347 239.653 183.177 239.003 183.177 238.288C183.177 237.264 183.534 236.229 184.249 235.184L187.305 230.8H189.433L186.169 235.392L185.497 235.792C185.603 235.547 185.737 235.339 185.897 235.168C186.067 234.987 186.286 234.848 186.553 234.752C186.83 234.656 187.171 234.608 187.577 234.608C188.227 234.608 188.814 234.763 189.337 235.072C189.87 235.371 190.297 235.792 190.617 236.336C190.937 236.869 191.097 237.499 191.097 238.224C191.097 238.949 190.921 239.611 190.569 240.208C190.217 240.805 189.737 241.28 189.129 241.632C188.531 241.984 187.865 242.16 187.129 242.16ZM187.129 240.432C187.534 240.432 187.897 240.336 188.217 240.144C188.537 239.952 188.787 239.691 188.969 239.36C189.161 239.019 189.257 238.64 189.257 238.224C189.257 237.808 189.161 237.435 188.969 237.104C188.787 236.773 188.537 236.517 188.217 236.336C187.897 236.144 187.534 236.048 187.129 236.048C186.723 236.048 186.361 236.144 186.041 236.336C185.721 236.528 185.47 236.789 185.289 237.12C185.107 237.44 185.017 237.808 185.017 238.224C185.017 238.64 185.107 239.019 185.289 239.36C185.47 239.691 185.721 239.952 186.041 240.144C186.361 240.336 186.723 240.432 187.129 240.432ZM193.153 242V230.8H194.993V242H193.153ZM194.417 242V240.32H200.689V242H194.417ZM194.417 237.088V235.472H200.145V237.088H194.417ZM194.417 232.48V230.8H200.609V232.48H194.417ZM205.63 242.16C204.884 242.16 204.206 242.027 203.598 241.76C203.001 241.483 202.494 241.083 202.078 240.56L203.326 239.312C203.55 239.653 203.865 239.925 204.27 240.128C204.676 240.331 205.118 240.432 205.598 240.432C206.057 240.432 206.452 240.347 206.782 240.176C207.113 240.005 207.369 239.765 207.55 239.456C207.742 239.147 207.838 238.789 207.838 238.384C207.838 237.957 207.742 237.595 207.55 237.296C207.369 236.997 207.102 236.768 206.75 236.608C206.409 236.437 205.993 236.352 205.502 236.352C205.31 236.352 205.113 236.368 204.91 236.4C204.708 236.421 204.526 236.459 204.366 236.512L205.182 235.456C205.406 235.371 205.641 235.301 205.886 235.248C206.142 235.184 206.388 235.152 206.622 235.152C207.198 235.152 207.716 235.291 208.174 235.568C208.644 235.845 209.012 236.235 209.278 236.736C209.556 237.227 209.694 237.808 209.694 238.48C209.694 239.205 209.524 239.845 209.182 240.4C208.841 240.955 208.366 241.387 207.758 241.696C207.15 242.005 206.441 242.16 205.63 242.16ZM204.366 236.512V235.424L207.358 231.936L209.566 231.888L206.446 235.472L204.366 236.512ZM202.638 232.448V230.8H209.566V231.888L207.982 232.448H202.638ZM213.135 242V240.32H216.079C216.847 240.32 217.519 240.155 218.095 239.824C218.682 239.493 219.135 239.035 219.455 238.448C219.786 237.851 219.951 237.163 219.951 236.384C219.951 235.616 219.786 234.939 219.455 234.352C219.124 233.765 218.666 233.307 218.079 232.976C217.503 232.645 216.836 232.48 216.079 232.48H213.135V230.8H216.127C216.938 230.8 217.69 230.944 218.383 231.232C219.076 231.509 219.679 231.904 220.191 232.416C220.714 232.917 221.119 233.509 221.407 234.192C221.695 234.864 221.839 235.6 221.839 236.4C221.839 237.189 221.695 237.925 221.407 238.608C221.119 239.291 220.719 239.888 220.207 240.4C219.695 240.901 219.092 241.296 218.399 241.584C217.706 241.861 216.959 242 216.159 242H213.135ZM211.871 242V230.8H213.711V242H211.871ZM227.315 242.16C226.568 242.16 225.896 241.989 225.299 241.648C224.701 241.296 224.227 240.827 223.875 240.24C223.533 239.653 223.363 239.003 223.363 238.288C223.363 237.264 223.72 236.229 224.435 235.184L227.491 230.8H229.619L226.355 235.392L225.683 235.792C225.789 235.547 225.923 235.339 226.083 235.168C226.253 234.987 226.472 234.848 226.739 234.752C227.016 234.656 227.357 234.608 227.763 234.608C228.413 234.608 229 234.763 229.523 235.072C230.056 235.371 230.483 235.792 230.803 236.336C231.123 236.869 231.283 237.499 231.283 238.224C231.283 238.949 231.107 239.611 230.755 240.208C230.403 240.805 229.923 241.28 229.315 241.632C228.717 241.984 228.051 242.16 227.315 242.16ZM227.315 240.432C227.72 240.432 228.083 240.336 228.403 240.144C228.723 239.952 228.973 239.691 229.155 239.36C229.347 239.019 229.443 238.64 229.443 238.224C229.443 237.808 229.347 237.435 229.155 237.104C228.973 236.773 228.723 236.517 228.403 236.336C228.083 236.144 227.72 236.048 227.315 236.048C226.909 236.048 226.547 236.144 226.227 236.336C225.907 236.528 225.656 236.789 225.475 237.12C225.293 237.44 225.203 237.808 225.203 238.224C225.203 238.64 225.293 239.019 225.475 239.36C225.656 239.691 225.907 239.952 226.227 240.144C226.547 240.336 226.909 240.432 227.315 240.432ZM232.571 240.912L236.699 236.528C237.04 236.165 237.318 235.84 237.531 235.552C237.744 235.264 237.899 234.992 237.995 234.736C238.091 234.48 238.139 234.219 238.139 233.952C238.139 233.451 237.974 233.061 237.643 232.784C237.323 232.496 236.912 232.352 236.411 232.352C235.878 232.352 235.408 232.485 235.003 232.752C234.598 233.019 234.235 233.435 233.915 234L232.635 232.944C233.072 232.187 233.611 231.616 234.251 231.232C234.891 230.837 235.632 230.64 236.475 230.64C237.168 230.64 237.776 230.779 238.299 231.056C238.822 231.333 239.227 231.723 239.515 232.224C239.803 232.715 239.947 233.285 239.947 233.936C239.947 234.405 239.888 234.827 239.771 235.2C239.664 235.563 239.478 235.931 239.211 236.304C238.944 236.667 238.576 237.093 238.107 237.584L234.939 240.864L232.571 240.912ZM232.571 242V240.912L234.155 240.352H240.171V242H232.571ZM245.035 242.16C244.289 242.16 243.611 242.027 243.003 241.76C242.406 241.483 241.899 241.083 241.483 240.56L242.731 239.312C242.955 239.653 243.27 239.925 243.675 240.128C244.081 240.331 244.523 240.432 245.003 240.432C245.462 240.432 245.857 240.347 246.187 240.176C246.518 240.005 246.774 239.765 246.955 239.456C247.147 239.147 247.243 238.789 247.243 238.384C247.243 237.957 247.147 237.595 246.955 237.296C246.774 236.997 246.507 236.768 246.155 236.608C245.814 236.437 245.398 236.352 244.907 236.352C244.715 236.352 244.518 236.368 244.315 236.4C244.113 236.421 243.931 236.459 243.771 236.512L244.587 235.456C244.811 235.371 245.046 235.301 245.291 235.248C245.547 235.184 245.793 235.152 246.027 235.152C246.603 235.152 247.121 235.291 247.579 235.568C248.049 235.845 248.417 236.235 248.683 236.736C248.961 237.227 249.099 237.808 249.099 238.48C249.099 239.205 248.929 239.845 248.587 240.4C248.246 240.955 247.771 241.387 247.163 241.696C246.555 242.005 245.846 242.16 245.035 242.16ZM243.771 236.512V235.424L246.763 231.936L248.971 231.888L245.851 235.472L243.771 236.512ZM242.043 232.448V230.8H248.971V231.888L247.387 232.448H242.043ZM250.508 238L254.492 230.8H256.572L252.492 238H250.508ZM250.508 239.12V238L251.292 237.472H259.196V239.12H250.508ZM255.82 242V234.672H257.628V242H255.82ZM260.125 238L264.109 230.8H266.189L262.109 238H260.125ZM260.125 239.12V238L260.909 237.472H268.813V239.12H260.125ZM265.437 242V234.672H267.245V242H265.437ZM274.839 242.16C273.996 242.16 273.223 241.925 272.519 241.456C271.826 240.976 271.271 240.304 270.855 239.44C270.439 238.576 270.231 237.557 270.231 236.384C270.231 235.211 270.434 234.197 270.839 233.344C271.255 232.48 271.81 231.813 272.503 231.344C273.196 230.875 273.964 230.64 274.807 230.64C275.66 230.64 276.434 230.875 277.127 231.344C277.82 231.813 278.37 232.48 278.775 233.344C279.191 234.197 279.399 235.216 279.399 236.4C279.399 237.573 279.191 238.592 278.775 239.456C278.37 240.32 277.82 240.987 277.127 241.456C276.444 241.925 275.682 242.16 274.839 242.16ZM274.807 240.432C275.362 240.432 275.842 240.283 276.247 239.984C276.652 239.685 276.967 239.237 277.191 238.64C277.426 238.043 277.543 237.291 277.543 236.384C277.543 235.488 277.426 234.741 277.191 234.144C276.967 233.547 276.647 233.104 276.231 232.816C275.826 232.517 275.351 232.368 274.807 232.368C274.263 232.368 273.783 232.517 273.367 232.816C272.962 233.104 272.647 233.547 272.423 234.144C272.199 234.731 272.087 235.477 272.087 236.384C272.087 237.291 272.199 238.043 272.423 238.64C272.647 239.237 272.962 239.685 273.367 239.984C273.783 240.283 274.263 240.432 274.807 240.432ZM284.315 242.16C283.569 242.16 282.891 242.027 282.283 241.76C281.686 241.483 281.179 241.083 280.763 240.56L282.011 239.312C282.235 239.653 282.55 239.925 282.955 240.128C283.361 240.331 283.803 240.432 284.283 240.432C284.742 240.432 285.137 240.347 285.467 240.176C285.798 240.005 286.054 239.765 286.235 239.456C286.427 239.147 286.523 238.789 286.523 238.384C286.523 237.957 286.427 237.595 286.235 237.296C286.054 236.997 285.787 236.768 285.435 236.608C285.094 236.437 284.678 236.352 284.187 236.352C283.995 236.352 283.798 236.368 283.595 236.4C283.393 236.421 283.211 236.459 283.051 236.512L283.867 235.456C284.091 235.371 284.326 235.301 284.571 235.248C284.827 235.184 285.073 235.152 285.307 235.152C285.883 235.152 286.401 235.291 286.859 235.568C287.329 235.845 287.697 236.235 287.963 236.736C288.241 237.227 288.379 237.808 288.379 238.48C288.379 239.205 288.209 239.845 287.867 240.4C287.526 240.955 287.051 241.387 286.443 241.696C285.835 242.005 285.126 242.16 284.315 242.16ZM283.051 236.512V235.424L286.043 231.936L288.251 231.888L285.131 235.472L283.051 236.512ZM281.323 232.448V230.8H288.251V231.888L286.667 232.448H281.323ZM289.788 240.912L293.916 236.528C294.257 236.165 294.535 235.84 294.748 235.552C294.961 235.264 295.116 234.992 295.212 234.736C295.308 234.48 295.356 234.219 295.356 233.952C295.356 233.451 295.191 233.061 294.86 232.784C294.54 232.496 294.129 232.352 293.628 232.352C293.095 232.352 292.625 232.485 292.22 232.752C291.815 233.019 291.452 233.435 291.132 234L289.852 232.944C290.289 232.187 290.828 231.616 291.468 231.232C292.108 230.837 292.849 230.64 293.692 230.64C294.385 230.64 294.993 230.779 295.516 231.056C296.039 231.333 296.444 231.723 296.732 232.224C297.02 232.715 297.164 233.285 297.164 233.936C297.164 234.405 297.105 234.827 296.988 235.2C296.881 235.563 296.695 235.931 296.428 236.304C296.161 236.667 295.793 237.093 295.324 237.584L292.156 240.864L289.788 240.912ZM289.788 242V240.912L291.372 240.352H297.388V242H289.788ZM300.972 242V230.8H302.78V242H300.972ZM298.732 232.448V230.8H302.62V232.448H298.732ZM308.82 242.16C308.073 242.16 307.401 241.989 306.804 241.648C306.206 241.296 305.732 240.827 305.38 240.24C305.038 239.653 304.868 239.003 304.868 238.288C304.868 237.264 305.225 236.229 305.94 235.184L308.996 230.8H311.124L307.86 235.392L307.188 235.792C307.294 235.547 307.428 235.339 307.588 235.168C307.758 234.987 307.977 234.848 308.244 234.752C308.521 234.656 308.862 234.608 309.268 234.608C309.918 234.608 310.505 234.763 311.028 235.072C311.561 235.371 311.988 235.792 312.308 236.336C312.628 236.869 312.788 237.499 312.788 238.224C312.788 238.949 312.612 239.611 312.26 240.208C311.908 240.805 311.428 241.28 310.82 241.632C310.222 241.984 309.556 242.16 308.82 242.16ZM308.82 240.432C309.225 240.432 309.588 240.336 309.908 240.144C310.228 239.952 310.478 239.691 310.66 239.36C310.852 239.019 310.948 238.64 310.948 238.224C310.948 237.808 310.852 237.435 310.66 237.104C310.478 236.773 310.228 236.517 309.908 236.336C309.588 236.144 309.225 236.048 308.82 236.048C308.414 236.048 308.052 236.144 307.732 236.336C307.412 236.528 307.161 236.789 306.98 237.12C306.798 237.44 306.708 237.808 306.708 238.224C306.708 238.64 306.798 239.019 306.98 239.36C307.161 239.691 307.412 239.952 307.732 240.144C308.052 240.336 308.414 240.432 308.82 240.432ZM314.076 238L318.06 230.8H320.14L316.06 238H314.076ZM314.076 239.12V238L314.86 237.472H322.764V239.12H314.076ZM319.388 242V234.672H321.196V242H319.388ZM328.022 242.16C327.276 242.16 326.604 241.989 326.006 241.648C325.409 241.296 324.934 240.827 324.582 240.24C324.241 239.653 324.07 239.003 324.07 238.288C324.07 237.264 324.428 236.229 325.142 235.184L328.198 230.8H330.326L327.062 235.392L326.39 235.792C326.497 235.547 326.63 235.339 326.79 235.168C326.961 234.987 327.18 234.848 327.446 234.752C327.724 234.656 328.065 234.608 328.47 234.608C329.121 234.608 329.708 234.763 330.23 235.072C330.764 235.371 331.19 235.792 331.51 236.336C331.83 236.869 331.99 237.499 331.99 238.224C331.99 238.949 331.814 239.611 331.462 240.208C331.11 240.805 330.63 241.28 330.022 241.632C329.425 241.984 328.758 242.16 328.022 242.16ZM328.022 240.432C328.428 240.432 328.79 240.336 329.11 240.144C329.43 239.952 329.681 239.691 329.862 239.36C330.054 239.019 330.15 238.64 330.15 238.224C330.15 237.808 330.054 237.435 329.862 237.104C329.681 236.773 329.43 236.517 329.11 236.336C328.79 236.144 328.428 236.048 328.022 236.048C327.617 236.048 327.254 236.144 326.934 236.336C326.614 236.528 326.364 236.789 326.182 237.12C326.001 237.44 325.91 237.808 325.91 238.224C325.91 238.64 326.001 239.019 326.182 239.36C326.364 239.691 326.614 239.952 326.934 240.144C327.254 240.336 327.617 240.432 328.022 240.432ZM339.135 242.16C338.324 242.16 337.572 242.016 336.879 241.728C336.196 241.429 335.599 241.019 335.087 240.496C334.575 239.963 334.18 239.349 333.903 238.656C333.625 237.952 333.487 237.2 333.487 236.4C333.487 235.6 333.625 234.853 333.903 234.16C334.18 233.456 334.575 232.843 335.087 232.32C335.599 231.797 336.196 231.387 336.879 231.088C337.572 230.789 338.324 230.64 339.135 230.64C340.041 230.64 340.825 230.789 341.487 231.088C342.148 231.387 342.735 231.792 343.247 232.304L341.999 233.552C341.668 233.189 341.263 232.907 340.783 232.704C340.313 232.501 339.764 232.4 339.135 232.4C338.58 232.4 338.073 232.496 337.615 232.688C337.156 232.88 336.756 233.157 336.415 233.52C336.084 233.872 335.828 234.293 335.647 234.784C335.465 235.275 335.375 235.813 335.375 236.4C335.375 236.987 335.465 237.525 335.647 238.016C335.828 238.507 336.084 238.933 336.415 239.296C336.756 239.648 337.156 239.92 337.615 240.112C338.073 240.304 338.58 240.4 339.135 240.4C339.817 240.4 340.393 240.299 340.863 240.096C341.343 239.883 341.748 239.595 342.079 239.232L343.327 240.48C342.815 241.003 342.212 241.413 341.519 241.712C340.825 242.011 340.031 242.16 339.135 242.16ZM348.569 242.16C347.822 242.16 347.15 241.989 346.553 241.648C345.955 241.296 345.481 240.827 345.129 240.24C344.787 239.653 344.617 239.003 344.617 238.288C344.617 237.264 344.974 236.229 345.689 235.184L348.745 230.8H350.873L347.609 235.392L346.937 235.792C347.043 235.547 347.177 235.339 347.337 235.168C347.507 234.987 347.726 234.848 347.993 234.752C348.27 234.656 348.611 234.608 349.017 234.608C349.667 234.608 350.254 234.763 350.777 235.072C351.31 235.371 351.737 235.792 352.057 236.336C352.377 236.869 352.537 237.499 352.537 238.224C352.537 238.949 352.361 239.611 352.009 240.208C351.657 240.805 351.177 241.28 350.569 241.632C349.971 241.984 349.305 242.16 348.569 242.16ZM348.569 240.432C348.974 240.432 349.337 240.336 349.657 240.144C349.977 239.952 350.227 239.691 350.409 239.36C350.601 239.019 350.697 238.64 350.697 238.224C350.697 237.808 350.601 237.435 350.409 237.104C350.227 236.773 349.977 236.517 349.657 236.336C349.337 236.144 348.974 236.048 348.569 236.048C348.163 236.048 347.801 236.144 347.481 236.336C347.161 236.528 346.91 236.789 346.729 237.12C346.547 237.44 346.457 237.808 346.457 238.224C346.457 238.64 346.547 239.019 346.729 239.36C346.91 239.691 347.161 239.952 347.481 240.144C347.801 240.336 348.163 240.432 348.569 240.432ZM357.873 242.16C357.126 242.16 356.454 241.989 355.857 241.648C355.26 241.296 354.785 240.827 354.433 240.24C354.092 239.653 353.921 239.003 353.921 238.288C353.921 237.264 354.278 236.229 354.993 235.184L358.049 230.8H360.177L356.913 235.392L356.241 235.792C356.348 235.547 356.481 235.339 356.641 235.168C356.812 234.987 357.03 234.848 357.297 234.752C357.574 234.656 357.916 234.608 358.321 234.608C358.972 234.608 359.558 234.763 360.081 235.072C360.614 235.371 361.041 235.792 361.361 236.336C361.681 236.869 361.841 237.499 361.841 238.224C361.841 238.949 361.665 239.611 361.313 240.208C360.961 240.805 360.481 241.28 359.873 241.632C359.276 241.984 358.609 242.16 357.873 242.16ZM357.873 240.432C358.278 240.432 358.641 240.336 358.961 240.144C359.281 239.952 359.532 239.691 359.713 239.36C359.905 239.019 360.001 238.64 360.001 238.224C360.001 237.808 359.905 237.435 359.713 237.104C359.532 236.773 359.281 236.517 358.961 236.336C358.641 236.144 358.278 236.048 357.873 236.048C357.468 236.048 357.105 236.144 356.785 236.336C356.465 236.528 356.214 236.789 356.033 237.12C355.852 237.44 355.761 237.808 355.761 238.224C355.761 238.64 355.852 239.019 356.033 239.36C356.214 239.691 356.465 239.952 356.785 240.144C357.105 240.336 357.468 240.432 357.873 240.432ZM366.873 242.16C366.18 242.16 365.551 241.984 364.985 241.632C364.431 241.28 363.988 240.805 363.657 240.208C363.337 239.6 363.177 238.923 363.177 238.176C363.177 237.419 363.337 236.741 363.657 236.144C363.988 235.536 364.431 235.056 364.985 234.704C365.551 234.341 366.18 234.16 366.873 234.16C367.46 234.16 367.977 234.288 368.425 234.544C368.884 234.789 369.247 235.131 369.513 235.568C369.78 236.005 369.913 236.501 369.913 237.056V239.264C369.913 239.819 369.78 240.315 369.513 240.752C369.257 241.189 368.9 241.536 368.441 241.792C367.983 242.037 367.46 242.16 366.873 242.16ZM367.161 240.496C367.599 240.496 367.977 240.4 368.297 240.208C368.628 240.005 368.884 239.728 369.065 239.376C369.247 239.024 369.337 238.619 369.337 238.16C369.337 237.701 369.247 237.296 369.065 236.944C368.884 236.592 368.628 236.32 368.297 236.128C367.977 235.925 367.604 235.824 367.177 235.824C366.74 235.824 366.356 235.925 366.025 236.128C365.705 236.32 365.449 236.592 365.257 236.944C365.076 237.296 364.985 237.701 364.985 238.16C364.985 238.619 365.076 239.024 365.257 239.376C365.449 239.728 365.705 240.005 366.025 240.208C366.356 240.4 366.735 240.496 367.161 240.496ZM370.985 242H369.225V239.936L369.529 238.064L369.225 236.208V230.48H370.985V242ZM376.219 242.16C375.472 242.16 374.795 242.027 374.187 241.76C373.589 241.483 373.083 241.083 372.667 240.56L373.915 239.312C374.139 239.653 374.453 239.925 374.859 240.128C375.264 240.331 375.707 240.432 376.187 240.432C376.645 240.432 377.04 240.347 377.371 240.176C377.701 240.005 377.957 239.765 378.139 239.456C378.331 239.147 378.427 238.789 378.427 238.384C378.427 237.957 378.331 237.595 378.139 237.296C377.957 236.997 377.691 236.768 377.339 236.608C376.997 236.437 376.581 236.352 376.091 236.352C375.899 236.352 375.701 236.368 375.499 236.4C375.296 236.421 375.115 236.459 374.955 236.512L375.771 235.456C375.995 235.371 376.229 235.301 376.475 235.248C376.731 235.184 376.976 235.152 377.211 235.152C377.787 235.152 378.304 235.291 378.763 235.568C379.232 235.845 379.6 236.235 379.867 236.736C380.144 237.227 380.283 237.808 380.283 238.48C380.283 239.205 380.112 239.845 379.771 240.4C379.429 240.955 378.955 241.387 378.347 241.696C377.739 242.005 377.029 242.16 376.219 242.16ZM374.955 236.512V235.424L377.947 231.936L380.155 231.888L377.035 235.472L374.955 236.512ZM373.227 232.448V230.8H380.155V231.888L378.571 232.448H373.227ZM383.723 242V240.32H386.667C387.435 240.32 388.107 240.155 388.683 239.824C389.27 239.493 389.723 239.035 390.043 238.448C390.374 237.851 390.539 237.163 390.539 236.384C390.539 235.616 390.374 234.939 390.043 234.352C389.712 233.765 389.254 233.307 388.667 232.976C388.091 232.645 387.424 232.48 386.667 232.48H383.723V230.8H386.715C387.526 230.8 388.278 230.944 388.971 231.232C389.664 231.509 390.267 231.904 390.779 232.416C391.302 232.917 391.707 233.509 391.995 234.192C392.283 234.864 392.427 235.6 392.427 236.4C392.427 237.189 392.283 237.925 391.995 238.608C391.707 239.291 391.307 239.888 390.795 240.4C390.283 240.901 389.68 241.296 388.987 241.584C388.294 241.861 387.547 242 386.747 242H383.723ZM382.459 242V230.8H384.299V242H382.459ZM398.671 242.16C397.828 242.16 397.055 241.925 396.351 241.456C395.658 240.976 395.103 240.304 394.687 239.44C394.271 238.576 394.063 237.557 394.063 236.384C394.063 235.211 394.266 234.197 394.671 233.344C395.087 232.48 395.642 231.813 396.335 231.344C397.028 230.875 397.796 230.64 398.639 230.64C399.492 230.64 400.266 230.875 400.959 231.344C401.652 231.813 402.202 232.48 402.607 233.344C403.023 234.197 403.231 235.216 403.231 236.4C403.231 237.573 403.023 238.592 402.607 239.456C402.202 240.32 401.652 240.987 400.959 241.456C400.276 241.925 399.514 242.16 398.671 242.16ZM398.639 240.432C399.194 240.432 399.674 240.283 400.079 239.984C400.484 239.685 400.799 239.237 401.023 238.64C401.258 238.043 401.375 237.291 401.375 236.384C401.375 235.488 401.258 234.741 401.023 234.144C400.799 233.547 400.479 233.104 400.063 232.816C399.658 232.517 399.183 232.368 398.639 232.368C398.095 232.368 397.615 232.517 397.199 232.816C396.794 233.104 396.479 233.547 396.255 234.144C396.031 234.731 395.919 235.477 395.919 236.384C395.919 237.291 396.031 238.043 396.255 238.64C396.479 239.237 396.794 239.685 397.199 239.984C397.615 240.283 398.095 240.432 398.639 240.432ZM409.475 242.16C408.633 242.16 407.859 241.925 407.155 241.456C406.462 240.976 405.907 240.304 405.491 239.44C405.075 238.576 404.867 237.557 404.867 236.384C404.867 235.211 405.07 234.197 405.475 233.344C405.891 232.48 406.446 231.813 407.139 231.344C407.833 230.875 408.601 230.64 409.443 230.64C410.297 230.64 411.07 230.875 411.763 231.344C412.457 231.813 413.006 232.48 413.411 233.344C413.827 234.197 414.035 235.216 414.035 236.4C414.035 237.573 413.827 238.592 413.411 239.456C413.006 240.32 412.457 240.987 411.763 241.456C411.081 241.925 410.318 242.16 409.475 242.16ZM409.443 240.432C409.998 240.432 410.478 240.283 410.883 239.984C411.289 239.685 411.603 239.237 411.827 238.64C412.062 238.043 412.179 237.291 412.179 236.384C412.179 235.488 412.062 234.741 411.827 234.144C411.603 233.547 411.283 233.104 410.867 232.816C410.462 232.517 409.987 232.368 409.443 232.368C408.899 232.368 408.419 232.517 408.003 232.816C407.598 233.104 407.283 233.547 407.059 234.144C406.835 234.731 406.723 235.477 406.723 236.384C406.723 237.291 406.835 238.043 407.059 238.64C407.283 239.237 407.598 239.685 408.003 239.984C408.419 240.283 408.899 240.432 409.443 240.432ZM417.208 242L420.488 237.408L421.144 237.008C421.037 237.243 420.898 237.451 420.728 237.632C420.568 237.813 420.354 237.952 420.088 238.048C419.821 238.144 419.48 238.192 419.064 238.192C418.424 238.192 417.837 238.043 417.304 237.744C416.77 237.435 416.344 237.008 416.024 236.464C415.704 235.92 415.544 235.291 415.544 234.576C415.544 233.851 415.72 233.189 416.072 232.592C416.434 231.995 416.914 231.52 417.512 231.168C418.109 230.816 418.776 230.64 419.512 230.64C420.258 230.64 420.93 230.816 421.528 231.168C422.125 231.509 422.594 231.973 422.936 232.56C423.288 233.136 423.464 233.787 423.464 234.512C423.464 235.536 423.106 236.571 422.392 237.616L419.336 242H417.208ZM419.512 236.752C419.917 236.752 420.28 236.656 420.6 236.464C420.92 236.272 421.17 236.011 421.352 235.68C421.533 235.349 421.624 234.981 421.624 234.576C421.624 234.149 421.533 233.771 421.352 233.44C421.17 233.109 420.92 232.848 420.6 232.656C420.28 232.464 419.917 232.368 419.512 232.368C419.106 232.368 418.744 232.464 418.424 232.656C418.104 232.848 417.848 233.109 417.656 233.44C417.474 233.771 417.384 234.149 417.384 234.576C417.384 234.992 417.474 235.365 417.656 235.696C417.848 236.016 418.104 236.272 418.424 236.464C418.754 236.656 419.117 236.752 419.512 236.752Z" fill="white"/>
<path d="M107.245 141.06V139.256H111.403C111.975 139.256 112.481 139.139 112.921 138.904C113.376 138.669 113.728 138.339 113.977 137.914C114.241 137.489 114.373 136.983 114.373 136.396C114.373 135.809 114.241 135.303 113.977 134.878C113.728 134.453 113.376 134.123 112.921 133.888C112.481 133.653 111.975 133.536 111.403 133.536H107.245V131.732H111.535C112.474 131.732 113.31 131.923 114.043 132.304C114.791 132.685 115.378 133.228 115.803 133.932C116.243 134.621 116.463 135.443 116.463 136.396C116.463 137.335 116.243 138.156 115.803 138.86C115.378 139.549 114.791 140.092 114.043 140.488C113.31 140.869 112.474 141.06 111.535 141.06H107.245ZM105.859 147V131.732H107.927V147H105.859ZM138.389 147V131.732H140.457V147H138.389ZM139.797 147V145.108H147.981V147H139.797ZM168.207 147L174.455 131.732H175.951L182.177 147H179.933L174.807 134.086H175.577L170.407 147H168.207ZM171.177 143.546V141.742H179.207V143.546H171.177ZM205.843 147V132.172H207.911V147H205.843ZM200.651 133.624V131.732H213.081V133.624H200.651ZM234.905 147V131.732H236.973V147H234.905ZM259.937 147V131.732H261.389L262.005 134.13V147H259.937ZM270.497 147L261.125 134.482L261.389 131.732L270.783 144.228L270.497 147ZM270.497 147L269.881 144.734V131.732H271.949V147H270.497ZM300.636 147.22C299.507 147.22 298.495 146.971 297.6 146.472C296.72 145.959 296.023 145.262 295.51 144.382C294.997 143.487 294.74 142.475 294.74 141.346V131.732H296.808V141.302C296.808 142.109 296.977 142.805 297.314 143.392C297.651 143.979 298.106 144.433 298.678 144.756C299.265 145.079 299.917 145.24 300.636 145.24C301.384 145.24 302.037 145.079 302.594 144.756C303.166 144.433 303.613 143.979 303.936 143.392C304.273 142.805 304.442 142.116 304.442 141.324V131.732H306.532V141.368C306.532 142.497 306.275 143.502 305.762 144.382C305.249 145.262 304.552 145.959 303.672 146.472C302.792 146.971 301.78 147.22 300.636 147.22ZM329.294 147V131.732H330.746L337.214 142.358H336.224L342.692 131.732H344.144V147H342.076V135.362L342.56 135.494L337.456 143.876H336.004L330.9 135.494L331.362 135.362V147H329.294Z" fill="white"/>
</g>
</g>
<defs>
<filter id="filter0_d_602_3024" x="-52" y="-46" width="554" height="382.81" filterUnits="userSpaceOnUse" color-interpolation-filters="sRGB">
<feFlood flood-opacity="0" result="BackgroundImageFix"/>
<feColorMatrix in="SourceAlpha" type="matrix" values="0 0 0 0 0 0 0 0 0 0 0 0 0 0 0 0 0 0 127 0" result="hardAlpha"/>
<feMorphology radius="2" operator="dilate" in="SourceAlpha" result="effect1_dropShadow_602_3024"/>
<feOffset dy="6"/>
<feGaussianBlur stdDeviation="25"/>
<feComposite in2="hardAlpha" operator="out"/>
<feColorMatrix type="matrix" values="0 0 0 0 0 0 0 0 0 0 0 0 0 0 0 0 0 0 0.25 0"/>
<feBlend mode="normal" in2="BackgroundImageFix" result="effect1_dropShadow_602_3024"/>
<feBlend mode="normal" in="SourceGraphic" in2="effect1_dropShadow_602_3024" result="shape"/>
</filter>
<clipPath id="clip0_602_3024">
<rect width="450" height="278.81" rx="16" fill="white"/>
</clipPath>
<clipPath id="clip1_602_3024">
<rect width="416" height="630" fill="white" transform="translate(47 -246)"/>
</clipPath>
</defs>
</svg>
